<?xml version="1.0" encoding="utf-8"?>
<!-- Generator: Adobe Illustrator 27.8.1, SVG Export Plug-In . SVG Version: 6.00 Build 0)  -->
<svg version="1.1" id="Layer_1" xmlns="http://www.w3.org/2000/svg" xmlns:xlink="http://www.w3.org/1999/xlink" x="0px" y="0px"
	 viewBox="0 0 2105.9 446.5" style="enable-background:new 0 0 2105.9 446.5;" xml:space="preserve">
<style type="text/css">
	.st0{fill:#231F20;}
	.st1{fill:url(#SVGID_1_);}
	.st2{fill:url(#SVGID_00000164502354956162419710000010880209333924286116_);}
	.st3{fill:url(#SVGID_00000031909933170330891130000004699433320603962556_);}
	.st4{fill:url(#SVGID_00000077301887507089741050000008060501365270026928_);}
	.st5{fill:url(#SVGID_00000129181860763857344730000009122729740853874859_);}
	.st6{fill:url(#SVGID_00000104682156241516829930000012365167816721857708_);}
	.st7{fill:url(#SVGID_00000021814981967578607690000013730907873481085852_);}
	.st8{fill:url(#SVGID_00000131343598544140875950000017840442800184254638_);}
	.st9{fill:url(#SVGID_00000021833706402627197690000007020256368534702507_);}
	.st10{fill:#EC1E24;}
	.st11{fill:url(#SVGID_00000008863723809256481850000007597990427671591311_);}
</style>
<g>
	<g>
		<path class="st0" d="M2075.5,192.5h-5.8v-3.7h15.4v3.7h-5.8v15h-3.7V192.5z"/>
		<path class="st0" d="M2087.1,188.8h4.9l4.6,12.8l4.6-12.8h4.8v18.7h-3.6V195l-4.5,12.5h-2.8l-4.5-12.4v12.4h-3.4V188.8z"/>
	</g>
</g>
<g>
	<g>
		<linearGradient id="SVGID_1_" gradientUnits="userSpaceOnUse" x1="725.9306" y1="443.9247" x2="725.9306" y2="183.4015">
			<stop  offset="0" style="stop-color:#A11E25"/>
			<stop  offset="1" style="stop-color:#EB2027"/>
		</linearGradient>
		<path class="st1" d="M637.2,183.4h176.2v52H689.1v50.6h121.2v50.3H689.1V394h125.6v49.9H637.2V183.4z"/>
	</g>
	<g>
		
			<linearGradient id="SVGID_00000016063774562437679080000014621075548412856497_" gradientUnits="userSpaceOnUse" x1="88.7553" y1="443.9247" x2="88.7553" y2="183.4015">
			<stop  offset="0" style="stop-color:#A11E25"/>
			<stop  offset="1" style="stop-color:#EB2027"/>
		</linearGradient>
		<path style="fill:url(#SVGID_00000016063774562437679080000014621075548412856497_);" d="M0,183.4h176.2v52H51.9v50.6l0,0v50.3
			l0,0V394h125.6v49.9H0V183.4z"/>
	</g>
	<g>
		
			<linearGradient id="SVGID_00000134957114373091894160000015513865284731815611_" gradientUnits="userSpaceOnUse" x1="4100.1724" y1="159.0566" x2="4360.5347" y2="159.0567" gradientTransform="matrix(-4.901923e-07 -1 1 -4.901923e-07 147.5862 4543.9409)">
			<stop  offset="0" style="stop-color:#A11E25"/>
			<stop  offset="1" style="stop-color:#EB2027"/>
		</linearGradient>
		<path style="fill:url(#SVGID_00000134957114373091894160000015513865284731815611_);" d="M199.4,443.8l0-258.5l51.5,0l0,207.5
			l113.2,0l0-209.4l49.8,0l0,260.4L199.4,443.8z"/>
	</g>
</g>
<g>
	<g>
		<g>
			<g>
				
					<linearGradient id="SVGID_00000026159679367435891310000006163773968112583816_" gradientUnits="userSpaceOnUse" x1="949.9658" y1="445.4208" x2="949.9658" y2="180.4738">
					<stop  offset="0" style="stop-color:#000000"/>
					<stop  offset="0.7237" style="stop-color:#262324"/>
					<stop  offset="1" style="stop-color:#949494"/>
				</linearGradient>
				<path style="fill:url(#SVGID_00000026159679367435891310000006163773968112583816_);" d="M842.8,312.9
					c0-92.2,45.3-132.5,122-132.5c42.1,0,69,12.5,90.8,37.1l-35.3,39.2c-14-15.3-30.6-24.3-55.9-24.3c-49.3,0-70.2,27.7-70.2,81.1
					c0,51.7,17.5,81.2,70.5,81.2c30,0,44.3-11.1,58.7-26l33.7,36.8c-18.4,21.2-43.1,39.9-95.5,39.9
					C875.2,445.4,842.8,397.9,842.8,312.9z"/>
			</g>
			<g>
				
					<linearGradient id="SVGID_00000065052993509668168240000016369413682180079536_" gradientUnits="userSpaceOnUse" x1="1183.4958" y1="446.4644" x2="1183.4958" y2="184.639">
					<stop  offset="0" style="stop-color:#000000"/>
					<stop  offset="0.7237" style="stop-color:#262324"/>
					<stop  offset="1" style="stop-color:#949494"/>
				</linearGradient>
				<path style="fill:url(#SVGID_00000065052993509668168240000016369413682180079536_);" d="M1077.7,343.5V184.6h51.2v151.5
					c0,38.1,8.4,60,55.2,60c46.5,0,55.6-20.5,55.6-60V184.6h49.6v158.8c0,49.2-8.4,103-105.8,103
					C1085.8,446.5,1077.7,392.7,1077.7,343.5z"/>
			</g>
			<g>
				
					<linearGradient id="SVGID_00000017514750504149675890000001975758576942859415_" gradientUnits="userSpaceOnUse" x1="1390.6582" y1="441.6081" x2="1390.6582" y2="184.639">
					<stop  offset="0" style="stop-color:#000000"/>
					<stop  offset="0.7237" style="stop-color:#262324"/>
					<stop  offset="1" style="stop-color:#949494"/>
				</linearGradient>
				<path style="fill:url(#SVGID_00000017514750504149675890000001975758576942859415_);" d="M1365.1,236h-56.8v-51.3H1473V236
					h-56.5v205.6h-51.5V236z"/>
			</g>
			<g>
				
					<linearGradient id="SVGID_00000110465010387686780580000000456787094045660581_" gradientUnits="userSpaceOnUse" x1="1571.7565" y1="441.6081" x2="1571.7565" y2="184.639">
					<stop  offset="0" style="stop-color:#000000"/>
					<stop  offset="0.7237" style="stop-color:#262324"/>
					<stop  offset="1" style="stop-color:#949494"/>
				</linearGradient>
				<path style="fill:url(#SVGID_00000110465010387686780580000000456787094045660581_);" d="M1546.2,236h-56.8v-51.3h164.7V236
					h-56.5v205.6h-51.5V236z"/>
			</g>
			<g>
				
					<linearGradient id="SVGID_00000176035113847622130620000001796269598897032376_" gradientUnits="userSpaceOnUse" x1="1761.4088" y1="441.6081" x2="1761.4088" y2="184.639">
					<stop  offset="0" style="stop-color:#000000"/>
					<stop  offset="0.7237" style="stop-color:#262324"/>
					<stop  offset="1" style="stop-color:#949494"/>
				</linearGradient>
				<path style="fill:url(#SVGID_00000176035113847622130620000001796269598897032376_);" d="M1673.9,184.6h173.8V236H1725v49.9
					h119.5v49.6H1725v56.9H1849v49.2h-175.1V184.6z"/>
			</g>
			<g>
				
					<linearGradient id="SVGID_00000054258445730673895950000010507855664738800531_" gradientUnits="userSpaceOnUse" x1="1972.6306" y1="441.6081" x2="1972.6306" y2="184.639">
					<stop  offset="0" style="stop-color:#000000"/>
					<stop  offset="0.7237" style="stop-color:#262324"/>
					<stop  offset="1" style="stop-color:#949494"/>
				</linearGradient>
				<path style="fill:url(#SVGID_00000054258445730673895950000010507855664738800531_);" d="M1973.4,356.3h-51.8v85.3h-49.9v-257
					h111.7c72.7,0,90.2,34.7,90.2,83.9c0,35.4-10.3,68-48.7,81.5l45.9,91.6h-54.6L1973.4,356.3z M1981.8,307.4
					c27.8,0,40.3-7.6,40.3-36.8c0-29.8-11.9-37.5-40.9-37.5h-59.6v74.2H1981.8z"/>
			</g>
		</g>
	</g>
</g>
<g>
	<g>
		<g>
			<path class="st10" d="M0,0.5h38.6v47.2L79,0.5h51.3L84.7,47.6l47.6,77.7H84.8L58.5,74L38.6,94.8v30.5H0V0.5z"/>
		</g>
		<g>
			<path class="st10" d="M145.1,0.5h38.6v94.1h60.2v30.7h-98.8V0.5z"/>
		</g>
		<g>
			<path class="st10" d="M261.3,0.5h103.4v26.6h-64.7V47h60v25.5h-60V97h66.6v28.3H261.3V0.5z"/>
		</g>
		<g>
			<path class="st10" d="M375,0.5h40.3l28.1,89.8l27.7-89.8h39.1l-46.3,124.8h-41.8L375,0.5z"/>
		</g>
		<g>
			<path class="st10" d="M589.7,104.7h-43.8l-6.1,20.6h-39.4L547.3,0.5h42.1l46.9,124.8h-40.4L589.7,104.7z M581.7,77.7l-13.8-44.9
				l-13.6,44.9H581.7z"/>
		</g>
	</g>
	<g>
		<path class="st10" d="M601.8,7.8c0-4.6,3.7-7.8,8.3-7.8c4.6,0,8.3,3.2,8.3,7.8c0,4.6-3.7,7.8-8.3,7.8
			C605.6,15.6,601.8,12.4,601.8,7.8z M616.7,7.8c0-3.7-2.9-6.4-6.6-6.4s-6.5,2.7-6.5,6.4c0,3.8,2.8,6.3,6.5,6.3
			S616.7,11.6,616.7,7.8z M607,3.7h3.4c1.9,0,3.4,0.7,3.4,2.6c0,0.9-0.7,1.9-1.6,2.2l2,3.3h-2l-1.5-2.8h-1.8v2.8H607V3.7z
			 M609.9,7.7c1.2,0,1.9-0.5,1.9-1.3c0-0.8-0.5-1.3-1.8-1.3h-1.2v2.7H609.9z"/>
	</g>
</g>
<linearGradient id="SVGID_00000168807560526858588480000017973010665833716152_" gradientUnits="userSpaceOnUse" x1="527.5417" y1="443.7673" x2="527.5417" y2="183.3973">
	<stop  offset="3.386699e-02" style="stop-color:#711C25"/>
	<stop  offset="0.2916" style="stop-color:#A11E25"/>
	<stop  offset="0.7435" style="stop-color:#EB2027"/>
	<stop  offset="1" style="stop-color:#F37D74"/>
</linearGradient>
<path style="fill:url(#SVGID_00000168807560526858588480000017973010665833716152_);" d="M441.1,183.4v126.3H614V183.4H441.1z
	 M574.8,276.7h-94.3v-60.4h94.3V276.7z M441.1,317.5v126.3H614V317.5H441.1z M574.8,410.8h-94.3v-60.4h94.3V410.8z"/>
</svg>
