<?xml version="1.0" encoding="utf-8"?>
<!-- Generator: Adobe Illustrator 27.8.1, SVG Export Plug-In . SVG Version: 6.00 Build 0)  -->
<svg version="1.1" id="Layer_1" xmlns="http://www.w3.org/2000/svg" xmlns:xlink="http://www.w3.org/1999/xlink" x="0px" y="0px"
	 viewBox="0 0 108 19" style="enable-background:new 0 0 108 19;" xml:space="preserve">
<style type="text/css">
	.st0{fill:#FFB400;}
</style>
<path class="st0" d="M3.8,19l1.6-7L0,7.2l7.2-0.6L10,0l2.8,6.6L20,7.2L14.6,12l1.6,7L10,15.3L3.8,19z"/>
<path class="st0" d="M25.8,19l1.6-7L22,7.2l7.2-0.6L32,0l2.8,6.6L42,7.2L36.5,12l1.6,7L32,15.3L25.8,19z"/>
<path class="st0" d="M47.8,19l1.6-7L44,7.2l7.2-0.6L54,0l2.8,6.6L64,7.2L58.5,12l1.6,7L54,15.3L47.8,19z"/>
<path class="st0" d="M69.8,19l1.6-7L66,7.2l7.2-0.6L76,0l2.8,6.6L86,7.2L80.6,12l1.6,7L76,15.3L69.8,19z"/>
<path class="st0" d="M91.8,19l1.6-7L88,7.2l7.2-0.6L98,0l2.8,6.6l7.2,0.6l-5.4,4.7l1.6,7L98,15.3L91.8,19z"/>
</svg>
